<?xml version="1.0" encoding="UTF-8"?>
<svg id="Layer_1" xmlns="http://www.w3.org/2000/svg" version="1.1" viewBox="0 0 226 71">
  <!-- Generator: Adobe Illustrator 29.6.1, SVG Export Plug-In . SVG Version: 2.1.1 Build 9)  -->
  <defs>
    <style>
      .st0 {
        fill: #005282;
      }

      .st1 {
        fill: #fff;
      }

      .st2 {
        fill: #e8b909;
      }
    </style>
  </defs>
  <path class="st1" d="M31,1.3c16.2,0,29.3,13.2,29.3,29.3s-13.2,29.3-29.3,29.3S1.6,46.9,1.6,30.7,14.8,1.3,31,1.3M31,.3C14.3.3.6,14,.6,30.7s13.6,30.3,30.3,30.3,30.3-13.6,30.3-30.3S47.7.3,31,.3h0Z"/>
  <path class="st1" d="M142.2,56.1h10.7v-1.1l-2-.4-7.8-20.4-1.6.3-1.3.3-7.8,19.7-2.1.6v1.1h7.4v-1.1l-3.5-.7,1.9-5.2h6.7l1.9,5.4-2.5.5v1.1ZM136.7,47.4l2.8-7.6,2.7,7.6h-5.5Z"/>
  <path class="st1" d="M154.7,34.9h-2.8c0,0,0,6.7,0,6.7h1l2.1-5.2h3.9v18l-3.1.6v1.1h11.7v-1.1l-3.1-.6v-18h3.9l2.1,5.2h.9v-6.7h-2.8c0,0-13.8,0-13.8,0Z"/>
  <path class="st1" d="M128.3,53.5v-16.8l2.4-.7v-1.1h-7.4v1.1l3.3.8.2,11.7-11.2-13.6h-7.4v1.1l.6.2c1,.3,1.8,1,2.4,1.8v16.4l-2.4.6v1.1h7.5v-1.1l-3.3-.7-.2-14.2,13.5,16.4,2.2-.4v-2.6Z"/>
  <path class="st1" d="M220.7,43.4l-2-.8c-2.6-1-3.7-1.9-3.7-3.9s1.4-3.2,3.6-3.2,2,.4,2.5.9l2.2,5h1v-5.7c-1.6-.7-3.6-1.3-5.5-1.3-5.6,0-8.5,3.5-8.5,6.8s1.5,4.9,5.1,6.3l1.9.7c2.3.9,3.1,1.9,3.1,3.6s-1.5,3.5-3.6,3.5-2.7-.6-3.5-1.2l-2.7-5.5h-.9l.6,6.6c1.7.7,3.7,1.4,6.2,1.4,4.5,0,8.9-2.8,8.9-7.6s-1.2-4.2-4.7-5.6Z"/>
  <path class="st1" d="M81.5,55l-2.5-.6v-17.7l2.5-.6v-1.1h-10.4v1.1l2.5.6v17.7l-2.5.6v1.1h10.4v-1.1Z"/>
  <path class="st1" d="M201,36l3.3.8v11.3c0,4.1-2.2,6.1-5.3,6.1s-5.1-2.2-5.1-6.4v-11.2l3-.6v-1.1h-11v1.1l2.5.6v11.4c0,5.9,3.4,8.6,8.9,8.6s9-3.4,9-9.2v-10.7l2.4-.7v-1.1h-7.7v1.1Z"/>
  <path class="st1" d="M173.4,36l2.5.6v17.7l-2.5.6v1.1h10.4v-1.1l-2.5-.6v-17.7l2.5-.6v-1.1h-10.4v1.1Z"/>
  <path class="st1" d="M95.9,47.4l3.6.5v6.7c-.7.3-1.5.5-2.6.5-3.8,0-7.2-3.3-7.2-10.3s2.6-9.3,6.8-9.3,2.5.4,3.9,1.4l3.1,5.1h.9l-.3-6.4c-1.7-.7-4.2-1.4-7.2-1.4-7.2,0-13.5,4.7-13.5,11.6s3.5,10.7,12.6,10.7,5.9-.9,7.6-1.4l1.2-.4v-7.1l1.8-.4v-1.3h-10.6v1.4Z"/>
  <path class="st1" d="M77.9,25.5c-1.6,0-2.7-.6-3.5-1.2l-2.7-5.5h-.9l.6,6.6c1.7.7,3.7,1.4,6.2,1.4,4.5,0,8.9-2.8,8.9-7.6s-1.2-4.2-4.7-5.6l-2-.8c-2.6-1-3.7-1.9-3.7-3.9s1.4-3.2,3.6-3.2,2,.4,2.5.9l2.2,5h1v-5.7c-1.6-.7-3.6-1.3-5.5-1.3-5.6,0-8.5,3.5-8.5,6.8s1.5,4.9,5.1,6.3l1.9.7c2.3.9,3.1,1.9,3.1,3.6s-1.5,3.5-3.6,3.5Z"/>
  <path class="st1" d="M86.4,26.3h7.4v-1.1l-3.5-.7,1.9-5.2h6.7l1.9,5.4-2.5.5v1.1h21.4v-1.1l-2.5-.6V6.9l2.5-.6v-1.1h-10.4v1.1l2.5.6v17.7l-2.6.7h0s-2.2-.5-2.2-.5l-7.8-20.4-1.6.3-1.3.3-7.8,19.7-2.1.6v1.1ZM95.5,10.1l2.7,7.6h-5.5l2.8-7.6Z"/>
  <path class="st1" d="M149.4,6.6h3.9v18l-3.1.6v1.1h11.7v-1.1l-3.1-.6V6.6h3.9l2.1,5.2h.9v-6.7h-2.8c0,0-13.8,0-13.8,0h-2.8c0,0,0,6.7,0,6.7h1l2.1-5.2Z"/>
  <path class="st1" d="M125,8.2v16.4l-2.4.6v1.1h7.5v-1.1l-3.3-.7-.2-14.2,13.5,16.4,2.2-.4v-2.6c0,0,0-16.8,0-16.8l2.4-.7v-1.1h-7.4v1.1l3.3.8.2,11.7-11.2-13.6h-7.4v1.1l.6.2c1,.3,1.8,1,2.4,1.8Z"/>
  <path class="st1" d="M31.4,16.8l-.4-.4-.4.4.4.4.4-.4Z"/>
  <path class="st1" d="M30.9,17.8l-.4.4.4.4.4-.4-.4-.4Z"/>
  <path class="st1" d="M30.9,14.9l-.4.4.4.4.4-.4-.4-.4Z"/>
  <path class="st1" d="M30.9,19.3l-.4.4.4.4.4-.4-.4-.4Z"/>
  <path class="st1" d="M30.9,11.9l-.4.4.4.4.4-.4-.4-.4Z"/>
  <path class="st1" d="M35.7,34.5l-.5,1.1h.9l-.5-1.1Z"/>
  <path class="st1" d="M35.8,40.2h-.6v2.1h.6c.6,0,1-.4,1-1.1h0c0-.6-.4-1.1-1-1.1Z"/>
  <path class="st1" d="M31.5,31.1v19.5c1.9,0,3.7-.4,5.5-.9,0,0,0,0,0,0,.2,0,.5-.2.7-.2,0,0,.1,0,.2,0,.2,0,.4-.2.6-.2.1,0,.2,0,.4-.2,0,0,.1,0,.2,0,.2-.1.5-.2.7-.3,0,0,0,0,.1,0,.3-.1.5-.3.8-.4,0,0,0,0,0,0,.2-.1.4-.2.6-.4.1,0,.2-.1.3-.2.2,0,.3-.2.5-.3,0,0,.2-.1.3-.2.2-.1.3-.2.5-.3,0,0,.2-.1.2-.2.2-.2.4-.3.7-.5,0,0,0,0,0,0,.2-.2.4-.4.6-.6,0,0,.1-.1.2-.2.1-.1.3-.3.4-.4,0,0,.2-.2.2-.3.1-.1.2-.3.4-.4,0,0,.2-.2.2-.3.1-.1.2-.3.3-.4,0,0,.2-.2.2-.3.1-.1.2-.3.3-.4,0,0,.1-.2.2-.3.1-.2.2-.3.3-.5,0,0,.1-.2.2-.2.2-.2.3-.5.5-.7,0,0,0,0,0,0,.1-.2.3-.4.4-.7,0,0,0-.2.1-.3,0-.2.2-.3.3-.5,0-.1.1-.2.2-.3,0-.2.2-.3.2-.5,0-.1,0-.2.1-.3,0-.2.2-.4.3-.7,0,0,0,0,0,0,.1-.3.2-.6.3-.8,0,0,0,0,0,0,0-.3.2-.5.2-.8,0,0,0,0,0-.1,0-.3.1-.5.2-.8,0,0,0-.1,0-.2,0-.1,0-.3,0-.4,0-.2,0-.4.1-.6,0,0,0-.2,0-.2,0-.2,0-.5,0-.7,0,0,0,0,0,0,0-.6.1-1.2.1-1.8h-19.4ZM40.1,33.6h.8l.9,1.5.9-1.5h.8v3.5h-.8v-2.3l-1,1.5h0l-1-1.5v2.3h-.7v-3.5ZM35.4,33.6h.7l1.5,3.6h-.8l-.3-.8h-1.5l-.3.8h-.8l1.5-3.6ZM37.6,41.2c0,1-.8,1.8-1.8,1.8h-1.4v-3.5h1.4c1.1,0,1.8.8,1.8,1.8h0ZM43.4,42.5c-.4.3-.8.6-1.5.6-1.1,0-1.8-.8-1.8-1.8h0c0-1,.8-1.8,1.8-1.8s1,.2,1.4.5l-.5.6c-.3-.2-.5-.4-.9-.4s-1,.5-1,1.1h0c0,.7.4,1.1,1.1,1.1s.5,0,.7-.2v-.5h-.8v-.7h1.5v1.5ZM44.6,38.4h-5.6v5.7h-.4v-5.7h-5.7v-.4h5.7v-5.6h.4v5.6h5.6v.4Z"/>
  <path class="st1" d="M30.9,13.4l-.4.4.4.4.4-.4-.4-.4Z"/>
  <path class="st1" d="M17.2,16.3c0,0-.1.1-.2.2-.2.2-.3.3-.4.5,0,0-.2.2-.2.3-.1.1-.2.2-.3.4,0,0-.2.2-.2.3-.1.1-.2.3-.3.4,0,0-.2.2-.2.3-.1.1-.2.3-.3.4,0,0-.1.2-.2.3-.2.2-.3.5-.5.7,0,0-.1.2-.2.3,0,.1-.2.3-.3.4,0,.1-.1.2-.2.3,0,.1-.2.3-.2.4,0,.1-.1.2-.2.4,0,.1-.1.3-.2.4,0,.1-.1.2-.2.4,0,.2-.1.3-.2.5,0,.2-.1.3-.2.5,0,.2-.2.4-.2.6,0,.1,0,.3-.1.4,0,.2,0,.3-.1.5,0,.1,0,.3-.1.4,0,.2,0,.3-.1.5,0,.1,0,.3,0,.4,0,.2-.1.5-.2.7,0,0,0,0,0,0,0,.3,0,.6-.1.8,0,.1,0,.3,0,.4,0,.1,0,.3,0,.4,0,.2,0,.3,0,.5,0,.1,0,.2,0,.3,0,.2,0,.3,0,.5h39.9c0-.1,0-.3,0-.4,0-.1,0-.2,0-.4,0-.2,0-.3,0-.5,0-.1,0-.3,0-.4,0-.1,0-.3,0-.4,0-.3,0-.5-.1-.8,0,0,0,0,0-.1,0-.2,0-.5-.2-.7,0-.1,0-.3,0-.4,0-.2,0-.3-.1-.5,0-.1,0-.3-.1-.4,0-.2,0-.3-.1-.5,0-.1,0-.3-.1-.4,0-.2-.1-.4-.2-.6,0-.2-.1-.3-.2-.5,0-.2-.1-.3-.2-.5,0-.1-.1-.2-.2-.4,0-.1-.1-.3-.2-.4,0-.1-.1-.3-.2-.4,0-.1-.1-.3-.2-.4,0-.1-.1-.2-.2-.4,0-.1-.2-.3-.3-.4,0-.1-.1-.2-.2-.3-.1-.2-.3-.5-.5-.7,0-.1-.1-.2-.2-.3,0-.1-.2-.3-.3-.4,0-.1-.2-.2-.2-.3,0-.1-.2-.2-.3-.4,0-.1-.2-.2-.3-.3-.1-.1-.2-.2-.3-.4,0,0-.2-.2-.3-.3-.1-.1-.3-.3-.4-.4,0,0-.2-.2-.3-.2-.2-.2-.3-.3-.5-.5,0,0-.2-.1-.3-.2-.1-.1-.3-.2-.4-.3,0,0-.2-.2-.3-.2-.1-.1-.3-.2-.4-.3,0,0-.2-.1-.3-.2-.2-.1-.3-.2-.5-.3,0,0-.2-.1-.3-.2-.2-.2-.5-.3-.7-.5,0,0-.1,0-.2-.1-.2-.1-.4-.2-.6-.3,0,0-.2,0-.3-.1-.2,0-.3-.2-.5-.3-.1,0-.2,0-.3-.1-.2,0-.3-.2-.5-.2,0,0-.2,0-.3-.1-.2,0-.4-.2-.6-.2,0,0-.1,0-.2,0-.3,0-.6-.2-.8-.3,0,0-.2,0-.2,0-.2,0-.4-.1-.6-.2-.1,0-.2,0-.3,0-.2,0-.4,0-.6-.1-.1,0-.2,0-.3,0-.2,0-.4,0-.6-.1,0,0-.2,0-.3,0-.3,0-.6,0-.9-.1,0,0,0,0,0,0-.7,0-1.3,0-2,0s-1.3,0-2,0c0,0,0,0,0,0-.3,0-.6,0-.9.1,0,0-.2,0-.3,0-.2,0-.4,0-.6.1-.1,0-.2,0-.3,0-.2,0-.4,0-.6.1-.1,0-.2,0-.3,0-.2,0-.4.1-.6.2,0,0-.2,0-.3,0-.3,0-.6.2-.8.3,0,0-.1,0-.2,0-.2,0-.4.2-.6.2-.1,0-.2,0-.3.1-.2,0-.3.1-.5.2-.1,0-.2,0-.3.1-.2,0-.3.2-.5.2,0,0-.2,0-.3.2-.2.1-.4.2-.6.3,0,0-.1,0-.2.1-.2.1-.5.3-.7.5,0,0-.2.1-.3.2-.2.1-.3.2-.5.3,0,0-.2.1-.3.2-.1.1-.3.2-.4.3,0,0-.2.1-.3.2-.1.1-.3.2-.4.3,0,0-.2.1-.3.2-.2.2-.4.3-.6.5ZM30.2,18.4c-.1-.1,0-.3,0-.4l.5-.5-.5-.5c-.1-.1,0-.3,0-.4l.5-.5-.5-.5c-.1-.1,0-.3,0-.4l.5-.5-.5-.5c-.1-.1,0-.3,0-.4l.5-.5-.5-.5c-.1-.1,0-.3,0-.4l.6-.6c0,0,.1,0,.2,0,.1,0,.2,0,.2,0l.6.6c.1.1,0,.3,0,.4l-.5.5.5.5c.1.1,0,.3,0,.4l-.5.5.5.5c.1.1,0,.3,0,.4l-.5.5.5.5c.1.1,0,.3,0,.4l-.5.5.5.5c.1.1,0,.3,0,.4l-.5.5.5.5c.1.1,0,.3,0,.4l-.6.6c0,0-.2,0-.2,0-.1,0-.2,0-.2,0l-.6-.6c-.1-.1,0-.3,0-.4l.5-.5-.5-.5ZM19.9,23c0-.7.5-1.4.4-2.1-.2-1.6.6-1.6.6-1.6-.3.2-.1.4,0,.7.2.3.4.6.4,1s-.1.8-.3,1.2c-.2.4-.4.7-.4,1.1s.7.8.7.8c0-.6.2-1.1.6-1.5.4-.5.7-1,.7-1.7,0-1.8-2.3-3.3-.8-5,0,0,0,0,0,0,0,0,0-.8.1-.9,0,0,.5.5.6.6h.1c0-.2,0-.5,0-.8.3,0,.5.6.5.8.3,0,.5.1.8.5.5.2,1.1.4,1.5.5.1.3-.3.5-.7.5-.4,0-1-.2-.9.4.4,0,.5,0,1.2,0,.2.4-.5.5-.8.5-.2,0-.4,0-.4.2s.1.3.9.7c.5.2.8,1,.8,1,.6-.2,1.1-.4,1.7-.7.4-.2,1.2-.6,1.7-.3.1,0,.3.3.1.5,0,0-.7,0-.9,0-.5.1-1.1.5-1.4.9-.2.2-.4.4-.7.6.4.4,1.1,1,1.1,1,.3.2.4.3.4.4.1-.7.3-1.3.3-1.3h5.8s.2.5.3,1.3c0-.1.2-.2.4-.4,0,0,.8-.6,1.1-1-.2-.2-.5-.4-.7-.6-.4-.4-.9-.8-1.4-.9-.2,0-.8.1-.9,0-.2-.2,0-.4.1-.5.5-.3,1.3,0,1.7.3.6.3,1.1.5,1.7.7,0,0,.3-.7.8-1,.8-.4.9-.5.9-.7s-.2-.1-.4-.2c-.2,0-.9,0-.8-.5.6,0,.7,0,1.2,0,0-.6-.5-.3-.9-.4-.4,0-.9-.2-.7-.5.4,0,1-.4,1.5-.5.3-.4.5-.5.8-.5,0-.2.3-.7.5-.8.1.3,0,.6,0,.8h.1c0,0,.5-.6.6-.5.1,0,.1.9.1.9,0,0,0,0,0,0,1.5,1.7-.9,3.2-.8,5,0,.7.3,1.2.7,1.7.3.4.6.8.6,1.5,0,0,.7-.3.7-.8s-.2-.8-.4-1.1c-.2-.4-.3-.8-.3-1.2s.2-.6.4-1c.1-.2.3-.5,0-.7,0,0,.8,0,.6,1.6-.1.8.4,1.4.4,2.1,0,.5-.1.9-.4,1.2-.2.2-.6.5-1.1.4,0,0-.1.7-.9,1.1-.3.2-.2.8.2,1.1,0,0,.3.2.4.3,0,.2-.2,1.7-.3,2.2-.2,0-.7,0-.8,0-.2,0,0-.6.4-.4,0,0,0-.8,0-1.3-.4-.2-.8-.4-1.1-.6-.3-.2-.5-.7-.7-1.1-.2,0-.4,0-.6.1-.2.1-.2.4-.2.6s0,.4.1.5c0,.2,0,.4,0,.5-.1,0-.3,0-.6-.1-.6-.2-1.5-.2-1.5-.3-.1-.3.3-.5.7-.4.2,0,1,.3,1,.2-.2-.5-.5-1.1-.6-1.6,0-.5-.1-1,.4-1.3.4-.2,1-.3,1.4-.5.7-.4,0-.9-.4-1.2-.5-.4-.7-.8-.7-1,0,0-.7.3-.8.4-.3.2-.7.4-1,.6,0,.3-.2.9-.5.9,0,1.1-.3,2.4-1.4,3.1,0,0,.2,1-.6.3,0,0-.7.2-1.3.2s-1.3-.2-1.3-.2c-.8.7-.6-.3-.6-.3-1.1-.7-1.4-2-1.4-3.1-.3,0-.5-.6-.5-.9-.3-.2-.7-.4-1-.6-.1,0-.8-.4-.8-.4,0,.2-.2.6-.7,1-.4.3-1.1.8-.4,1.2.4.2.9.3,1.4.5.6.2.5.8.4,1.3-.1.5-.4,1.1-.6,1.6,0,0,.7-.2,1-.2.4,0,.8,0,.7.4,0,.1-1,.1-1.5.3-.3.2-.5.2-.6.1-.2,0-.1-.3,0-.5,0-.2.1-.3.1-.5s0-.5-.2-.6c-.2,0-.4,0-.6-.1-.1.4-.4.9-.7,1.1-.3.3-.7.4-1.1.6,0,.5,0,1.3,0,1.3.4-.1.6.4.4.4-.2,0-.7,0-.8,0-.1-.4-.4-2-.3-2.2,0-.1.3-.3.4-.3.4-.3.5-.9.2-1.1-.8-.5-.9-1.1-.9-1.1-.5,0-.9-.2-1.1-.4-.3-.3-.4-.7-.4-1.2Z"/>
  <path class="st0" d="M30.2,19.9l.6.6s0,0,.2,0c0,0,.1,0,.2,0l.6-.6c0,0,.1-.3,0-.4l-.5-.5.5-.5c0,0,.1-.3,0-.4l-.5-.5.5-.5c0,0,.1-.3,0-.4l-.5-.5.5-.5c0,0,.1-.3,0-.4l-.5-.5.5-.5c0,0,.1-.3,0-.4l-.5-.5.5-.5c0,0,.1-.3,0-.4l-.6-.6s0,0-.2,0-.1,0-.2,0l-.6.6c0,0-.1.3,0,.4l.5.5-.5.5c0,0-.1.3,0,.4l.5.5-.5.5c0,0-.1.3,0,.4l.5.5-.5.5c0,0-.1.3,0,.4l.5.5-.5.5c0,0-.1.3,0,.4l.5.5-.5.5c0,0-.1.3,0,.4ZM30.5,12.3l.4-.4.4.4-.4.4-.4-.4ZM30.5,13.8l.4-.4.4.4-.4.4-.4-.4ZM30.5,15.3l.4-.4.4.4-.4.4-.4-.4ZM30.5,16.8l.4-.4.4.4-.4.4-.4-.4ZM30.5,18.2l.4-.4.4.4-.4.4-.4-.4ZM30.9,19.3l.4.4-.4.4-.4-.4.4-.4Z"/>
  <path class="st0" d="M21.4,24.5s.1.7.9,1.1c.3.2.2.8-.2,1.1,0,0-.3.2-.4.3,0,.2.2,1.7.3,2.2.2,0,.7,0,.8,0,.2,0,0-.6-.4-.4,0,0,0-.8,0-1.3.4-.2.8-.4,1.1-.6.3-.2.5-.7.7-1.1.2,0,.4,0,.6.1.2.1.2.4.2.6s0,.4-.1.5c0,.2,0,.4,0,.5.1,0,.3,0,.6-.1.6-.2,1.5-.2,1.5-.3.1-.3-.3-.5-.7-.4-.2,0-1,.3-1,.2.2-.5.5-1.1.6-1.6,0-.5.1-1-.4-1.3-.4-.2-1-.3-1.4-.5-.7-.4,0-.9.4-1.2.5-.4.7-.8.7-1,0,0,.7.3.8.4.3.2.7.4,1,.6,0,.3.2.9.5.9,0,1.1.3,2.4,1.4,3.1,0,0-.2,1,.6.3,0,0,.7.2,1.3.2s1.3-.2,1.3-.2c.8.7.6-.3.6-.3,1.1-.7,1.4-2,1.4-3.1.3,0,.5-.6.5-.9.3-.2.7-.4,1-.6.1,0,.8-.4.8-.4,0,.2.2.6.7,1,.4.3,1.1.8.4,1.2-.4.2-.9.3-1.4.5-.6.2-.5.8-.4,1.3.1.5.4,1.1.6,1.6,0,0-.7-.2-1-.2-.4,0-.8,0-.7.4,0,.1,1,.1,1.5.3.3.2.5.2.6.1.2,0,.1-.3,0-.5,0-.2-.1-.3-.1-.5s0-.5.2-.6c.2,0,.4,0,.6-.1.1.4.4.9.7,1.1.3.3.7.4,1.1.6,0,.5,0,1.3,0,1.3-.4-.1-.6.4-.4.4.2,0,.7,0,.8,0,.1-.4.4-2,.3-2.2,0-.1-.3-.3-.4-.3-.4-.3-.5-.9-.2-1.1.8-.5.9-1.1.9-1.1.5,0,.9-.2,1.1-.4.3-.3.4-.7.4-1.2,0-.7-.5-1.4-.4-2.1.2-1.6-.6-1.6-.6-1.6.3.2.1.4,0,.7-.2.3-.4.6-.4,1s.1.8.3,1.2c.2.4.4.7.4,1.1s-.7.8-.7.8c0-.6-.2-1.1-.6-1.5-.4-.5-.7-1-.7-1.7,0-1.8,2.3-3.3.8-5,0,0,0,0,0,0,0,0,0-.8-.1-.9,0,0-.5.5-.6.6h-.1c0-.2,0-.5,0-.8-.3,0-.5.6-.5.8-.3,0-.5.1-.8.5-.5.2-1.1.4-1.5.5-.1.3.3.5.7.5.4,0,1-.2.9.4-.4,0-.5,0-1.2,0-.2.4.5.5.8.5.2,0,.4,0,.4.2s-.1.3-.9.7c-.5.2-.8,1-.8,1-.6-.2-1.1-.4-1.7-.7-.4-.2-1.2-.6-1.7-.3-.1,0-.3.3-.1.5,0,0,.7,0,.9,0,.5.1,1.1.5,1.4.9.2.2.4.4.7.6-.4.4-1.1,1-1.1,1-.3.2-.4.3-.4.4-.1-.7-.3-1.3-.3-1.3h-5.8s-.2.5-.3,1.3c0-.1-.2-.2-.4-.4,0,0-.8-.6-1.1-1,.2-.2.5-.4.7-.6.4-.4.9-.8,1.4-.9.2,0,.8.1.9,0,.2-.2,0-.4-.1-.5-.5-.3-1.3,0-1.7.3-.6.3-1.1.5-1.7.7,0,0-.3-.7-.8-1-.8-.4-.9-.5-.9-.7s.2-.1.4-.2c.2,0,.9,0,.8-.5-.6,0-.7,0-1.2,0,0-.6.5-.3.9-.4.4,0,.9-.2.7-.5-.4,0-1-.4-1.5-.5-.3-.4-.5-.5-.8-.5,0-.2-.3-.7-.5-.8-.1.3,0,.6,0,.8h-.1c0,0-.5-.6-.6-.5-.1,0-.1.9-.1.9,0,0,0,0,0,0-1.5,1.7.9,3.2.8,5,0,.7-.3,1.2-.7,1.7-.3.4-.6.8-.6,1.5,0,0-.7-.3-.7-.8s.2-.8.4-1.1c.2-.4.3-.8.3-1.2s-.2-.6-.4-1c-.1-.2-.3-.5,0-.7,0,0-.8,0-.6,1.6.1.8-.4,1.4-.4,2.1,0,.5.1.9.4,1.2.2.2.6.5,1.1.4Z"/>
  <path class="st0" d="M35,36.4h1.5l.3.8h.8l-1.5-3.6h-.7l-1.5,3.6h.8l.3-.8ZM35.7,34.5l.5,1.1h-.9l.5-1.1Z"/>
  <path class="st0" d="M40.8,34.9l1,1.5h0l1-1.5v2.3h.8v-3.5h-.8l-.9,1.5-.9-1.5h-.8v3.5h.7v-2.3Z"/>
  <path class="st0" d="M35.8,39.5h-1.4v3.5h1.4c1.1,0,1.8-.8,1.8-1.8h0c0-1-.8-1.8-1.8-1.8ZM36.8,41.3c0,.6-.4,1.1-1,1.1h-.6v-2.1h.6c.6,0,1,.4,1,1.1h0Z"/>
  <path class="st0" d="M41.9,41.6h.8v.5c-.2.1-.4.2-.7.2-.6,0-1.1-.5-1.1-1.1h0c0-.6.4-1.1,1-1.1s.6.1.9.4l.5-.6c-.4-.3-.7-.5-1.4-.5-1.1,0-1.8.8-1.8,1.8h0c0,1.1.7,1.8,1.8,1.8s1.1-.3,1.5-.6v-1.5h-1.5v.7Z"/>
  <path class="st0" d="M39,32.5h-.4v5.6h-5.7v.4h5.7v5.7h.4v-5.7h5.6v-.4h-5.6v-5.6Z"/>
  <path class="st0" d="M38.6,54.3c-.2-.5-.7-.8-1.3-.7l-.5.2.6,1.9.5-.2c.6-.2.8-.7.7-1.2h0Z"/>
  <path class="st0" d="M19.7,9.3l-.8-.6v1c.1,0,.8-.4.8-.4Z"/>
  <path class="st0" d="M31,1.3C14.8,1.3,1.6,14.5,1.6,30.7s13.2,29.3,29.3,29.3,29.3-13.2,29.3-29.3S47.2,1.3,31,1.3ZM47.5,10.4l-.8.9.9.8.8-.9.7.6-2.1,2.5-.7-.6.8-1-.9-.8-.8,1-.7-.6,2.1-2.5.7.6ZM42,8.7h0c.5-.8,1.5-1.1,2.4-.6.5.3.8.7.9,1.1l-.8.3c-.1-.3-.2-.5-.5-.7-.4-.2-.9,0-1.2.3h0c-.3.5-.2,1,.3,1.3.2.1.4.2.5.2l.2-.3-.6-.3.3-.6,1.3.8-.8,1.3c-.4,0-1,0-1.5-.3-.9-.5-1.2-1.5-.7-2.4ZM40.9,6.5l.8.4-1.3,3-.8-.4,1.3-3ZM36.5,5.1l.9.3-.3,1.2,1.1.3.3-1.2.9.3-.9,3.2-.9-.3.4-1.2-1.1-.3-.4,1.2-.9-.3.9-3.2ZM31.9,6.6c-.7-.2-1.2-.4-1.2-1.1h0c0-.6.5-1,1.3-1,.6,0,1,.2,1.3.5l-.5.6c-.3-.2-.6-.4-.9-.4-.2,0-.3,0-.3.2h0c0,.2.1.2.6.4.8.2,1.2.5,1.2,1.1h0c0,.7-.6,1.1-1.4,1-.6,0-1.1-.2-1.5-.6l.5-.6c.3.3.7.4,1.1.4.2,0,.4,0,.4-.2h0c0-.1,0-.2-.5-.3ZM27.3,4.8l.2,1.8c0,.5.3.7.7.6.4,0,.6-.3.5-.7l-.2-1.8h.9c0,0,.2,1.7.2,1.7.1,1.1-.4,1.6-1.4,1.7-.9.1-1.6-.3-1.7-1.3l-.2-1.8h.9ZM25.1,5.2l.8,3.2-.9.2-.8-3.2.9-.2ZM23.2,5.7l.3.8-.9.3.9,2.3-.9.3-.9-2.3-.9.3-.3-.8,2.7-1ZM18.8,7.5l2.8,2.2-.9.5-.5-.4-1.1.6v.6c0,0-.8.5-.8.5l-.4-3.6.8-.4ZM18.4,15.2c0,0,.2-.2.3-.2.1-.1.3-.2.4-.3,0,0,.2-.1.3-.2.2-.1.3-.2.5-.3,0,0,.2-.1.3-.2.2-.2.5-.3.7-.5,0,0,.1,0,.2-.1.2-.1.4-.2.6-.3,0,0,.2-.1.3-.2.2,0,.3-.2.5-.2.1,0,.2,0,.3-.1.2,0,.3-.2.5-.2.1,0,.2,0,.3-.1.2,0,.4-.2.6-.2,0,0,.1,0,.2,0,.3,0,.6-.2.8-.3,0,0,.2,0,.3,0,.2,0,.4-.1.6-.2.1,0,.2,0,.3,0,.2,0,.4,0,.6-.1.1,0,.2,0,.3,0,.2,0,.4,0,.6-.1,0,0,.2,0,.3,0,.3,0,.6,0,.9-.1,0,0,0,0,0,0,.7,0,1.3,0,2,0s1.3,0,2,0c0,0,0,0,0,0,.3,0,.6,0,.9.1,0,0,.2,0,.3,0,.2,0,.4,0,.6.1.1,0,.2,0,.3,0,.2,0,.4,0,.6.1.1,0,.2,0,.3,0,.2,0,.4.1.6.2,0,0,.2,0,.2,0,.3,0,.6.2.8.3,0,0,.1,0,.2,0,.2,0,.4.2.6.2,0,0,.2,0,.3.1.2,0,.3.2.5.2.1,0,.2,0,.3.1.2,0,.3.2.5.3,0,0,.2,0,.3.1.2.1.4.2.6.3,0,0,.1,0,.2.1.2.1.5.3.7.5,0,0,.2.1.3.2.2.1.3.2.5.3,0,0,.2.1.3.2.1.1.3.2.4.3,0,0,.2.2.3.2.1.1.3.2.4.3,0,0,.2.1.3.2.2.2.4.3.5.5,0,0,.2.2.3.2.1.1.3.3.4.4,0,0,.2.2.3.3.1.1.2.2.3.4,0,0,.2.2.3.3.1.1.2.2.3.4,0,.1.2.2.2.3.1.1.2.3.3.4,0,0,.1.2.2.3.2.2.3.4.5.7,0,.1.1.2.2.3,0,.1.2.3.3.4,0,.1.1.2.2.4,0,.1.1.3.2.4,0,.1.1.2.2.4,0,.1.1.3.2.4,0,.1.1.2.2.4,0,.2.1.3.2.5,0,.2.1.3.2.5,0,.2.2.4.2.6,0,.1,0,.2.1.4,0,.2,0,.3.1.5,0,.1,0,.3.1.4,0,.2,0,.3.1.5,0,.1,0,.3,0,.4,0,.2.1.5.2.7,0,0,0,0,0,.1,0,.3,0,.5.1.8,0,.1,0,.3,0,.4,0,.1,0,.3,0,.4,0,.2,0,.3,0,.5,0,.1,0,.2,0,.4,0,.1,0,.3,0,.4H11c0-.2,0-.3,0-.5,0-.1,0-.2,0-.3,0-.2,0-.3,0-.5,0-.1,0-.3,0-.4,0-.1,0-.3,0-.4,0-.3,0-.6.1-.8,0,0,0,0,0,0,0-.2,0-.5.2-.7,0-.1,0-.3,0-.4,0-.2,0-.3.1-.5,0-.1,0-.3.1-.4,0-.2,0-.3.1-.5,0-.1,0-.3.1-.4,0-.2.1-.4.2-.6,0-.2.1-.3.2-.5,0-.2.1-.3.2-.5,0-.1.1-.2.2-.4,0-.1.1-.3.2-.4,0-.1.1-.2.2-.4,0-.1.1-.3.2-.4,0-.1.1-.2.2-.3,0-.1.2-.3.3-.4,0,0,.1-.2.2-.3.1-.2.3-.5.5-.7,0,0,.1-.2.2-.3.1-.1.2-.3.3-.4,0-.1.2-.2.2-.3.1-.1.2-.3.3-.4,0,0,.2-.2.2-.3.1-.1.2-.3.3-.4,0,0,.2-.2.2-.3.1-.2.3-.3.4-.5,0,0,.1-.1.2-.2.2-.2.4-.3.6-.5,0,0,.2-.1.3-.2.1-.1.3-.2.4-.3ZM16.8,31.1h3.1l-7.3,7.3c-.3-.7-.6-1.5-.8-2.3l5-5ZM11.2,33.7c-.1-.8-.2-1.7-.2-2.6h2.8l-2.6,2.6ZM22.8,31.1h3.1l-11.2,11.2c-.4-.6-.8-1.2-1.2-1.9l9.3-9.3ZM28.9,31.1h1.6v1.5l-12.9,12.9c-.5-.5-1-1-1.5-1.5l12.8-12.8ZM14,10.8l2.1.5-1.1-1.4.7-.6,2.1,2.6-.6.5-2.2-.5,1.1,1.4-.7.6-2.1-2.6.7-.5ZM11.2,13.4c.4-.4.8-.6,1.2-.7v.8c-.2,0-.4.1-.6.4-.3.4-.3.9.1,1.2h0c.4.4.9.3,1.3,0,.1-.2.2-.3.2-.5l-.3-.3-.4.5-.5-.4,1-1.1,1.1,1c0,.5-.2,1-.6,1.4-.7.8-1.7.9-2.5.2h0c-.7-.6-.8-1.7-.1-2.5ZM5.4,25.1l2-.9-1.7-.4.2-.9,3.2.8-.2.8-2.1.9,1.8.4-.2.9-3.2-.8.2-.8ZM5,27.5l3.3.4v.9c0,0-3.4-.4-3.4-.4v-.9ZM4.8,30.9l3.3-1.5v1s-.6.3-.6.3v1.3s.6.2.6.2v1s-3.3-1.3-3.3-1.3v-.9ZM7.6,36c.2-.4.3-.7.2-1.1,0-.2-.2-.4-.3-.3h0c-.1,0-.2.1-.2.6,0,.7-.1,1.3-.8,1.4h0c-.6.1-1.1-.3-1.3-1.1-.1-.6,0-1,.2-1.4l.7.3c-.2.3-.2.7-.2,1,0,.2.2.3.3.3h0c.1,0,.2-.2.2-.6,0-.8.2-1.3.8-1.4h0c.7-.1,1.2.3,1.3,1.1.1.6,0,1.2-.3,1.6l-.7-.4ZM9.8,41.4l-.3.9c0,.1-.2,0-.2,0l-.9-.3c-.1,0,0-.2,0-.2l.3-.9c0-.1.2,0,.2,0l.9.3c.1,0,0,.2,0,.2ZM9.7,22.2l-2.3-1-.4.9-.7-.3,1.1-2.7.7.3-.4.9,2.3,1-.4.8ZM8.9,16.7l.5-.8,2.7,1.8-.5.8-2.7-1.8ZM11.6,47.7c.2.3.5.4.8.4v.5c-.5,0-.8-.1-1.2-.6-.6-.6-.5-1.6.2-2.1h0c.6-.5,1.5-.5,2.1.2.3.4.4.8.4,1.2h-.5c0-.3,0-.6-.3-.9-.4-.4-1-.4-1.4,0h0c-.4.4-.5,1-.2,1.4ZM15,50.9l-.3.3-1.5-1.3,1.9-2.2.4.3-1.6,1.8,1.2,1ZM18.8,51.1l-1.4-.9-.4.6,1.2.8-.3.4-1.2-.8-.4.7,1.4.9-.3.4-1.8-1.2,1.6-2.4,1.8,1.2-.3.4ZM30.5,35.5v3.1l-9.4,9.4c-.6-.4-1.3-.8-1.9-1.2l11.3-11.3ZM19.4,54.3l.2-3.2.5.2-.2,2.4,1.7-1.6.5.2-2.3,2.1-.4-.2ZM24.9,53.8l-1.6-.5-.2.7,1.4.4v.4c-.1,0-1.5-.4-1.5-.4l-.2.7,1.6.5v.4c-.1,0-2.2-.6-2.2-.6l.8-2.8,2.1.6v.4ZM23,49l7.4-7.4v3.1l-5.2,5.2c-.8-.2-1.5-.5-2.2-.8ZM30.5,47.6v3c-.9,0-1.9-.1-2.8-.3l2.8-2.8ZM27.6,56.8l-2-.3.5-2.9h.5c0,0-.4,2.5-.4,2.5l1.5.3v.5ZM31,57l-.3-.7h-1.4s-.3.7-.3.7h-.5s1.4-2.9,1.4-2.9h.5s1.2,3,1.2,3h-.5ZM35,56.7l-1.9-1.8.3,2.1h-.5c0,0-.4-2.8-.4-2.8h.5c0,0,1.8,1.7,1.8,1.7l-.3-2h.5c0,0,.4,2.8.4,2.8h-.4ZM38.1,56l-1,.3-.8-2.8,1-.3c.9-.3,1.7.2,1.9.9h0c.2.8-.2,1.6-1.1,1.9ZM42.8,54.1l-1.1-2.1-.4.4-.3-.3.6-.6.3-.2,1.4,2.6-.4.2ZM45.4,52.6c-.5.4-1.1.4-1.4,0h0c-.2-.3-.2-.6,0-.9-.3,0-.5,0-.7-.3h0c-.3-.4,0-.9.4-1.2.5-.3,1-.3,1.3,0h0c.2.3.1.5,0,.8.3,0,.6,0,.8.3h0c.3.4,0,1-.4,1.3ZM48.1,50.5c-.5.4-1,.5-1.4.1h0c-.2-.3-.2-.6,0-.9-.3,0-.5,0-.7-.2h0c-.3-.3-.2-.9.2-1.3.4-.4,1-.4,1.3,0h0c.2.2.2.5.1.8.3-.1.6,0,.9.2h0c.3.4.2,1-.3,1.4ZM50.6,48c-.2.3-.5.4-.8.4-.3,0-.6,0-1.1-.5h0c-.7-.6-.9-1.4-.4-2,.2-.3.5-.4.8-.5v.5c-.1,0-.3.1-.5.3-.3.3-.1.8.2,1.1,0-.2,0-.5.2-.7.4-.4.9-.6,1.4-.2h0c.4.4.4,1,0,1.5ZM50.8,32.9s0,0,0,0c0,.2,0,.5,0,.7,0,0,0,.2,0,.2,0,.2,0,.4-.1.6,0,.1,0,.3,0,.4,0,0,0,.1,0,.2,0,.3-.1.5-.2.8,0,0,0,0,0,.1,0,.3-.2.5-.2.8,0,0,0,0,0,0,0,.3-.2.6-.3.8,0,0,0,0,0,0,0,.2-.2.5-.3.7,0,.1,0,.2-.1.3,0,.2-.2.3-.2.5,0,.1,0,.2-.2.3,0,.2-.2.3-.3.5,0,0,0,.2-.1.3-.1.2-.3.4-.4.7,0,0,0,0,0,0-.2.2-.3.5-.5.7,0,0-.1.2-.2.2-.1.2-.2.3-.3.5,0,0-.1.2-.2.3-.1.1-.2.3-.3.4,0,0-.2.2-.2.3-.1.1-.2.3-.3.4,0,0-.2.2-.2.3-.1.1-.2.3-.4.4,0,0-.2.2-.2.3-.1.1-.3.3-.4.4,0,0-.1.1-.2.2-.2.2-.4.4-.6.6,0,0,0,0,0,0-.2.2-.4.4-.7.5,0,0-.2.1-.2.2-.2.1-.3.2-.5.3,0,0-.2.1-.3.2-.2.1-.3.2-.5.3,0,0-.2.1-.3.2-.2.1-.4.3-.6.4,0,0,0,0,0,0-.3.1-.5.3-.8.4,0,0,0,0-.1,0-.2.1-.5.2-.7.3,0,0-.1,0-.2,0-.1,0-.2.1-.4.2-.2,0-.4.2-.6.2,0,0-.1,0-.2,0-.2,0-.5.2-.7.2,0,0,0,0,0,0-1.7.5-3.6.9-5.5.9v-19.6h19.4c0,.6,0,1.2-.1,1.8ZM53.3,42.2l-.9.3c-.1,0-.2,0-.2,0l-.3-.9c0-.1,0-.2,0-.2l.9-.3c.1,0,.2,0,.2,0l.3.9c0,.1,0,.2,0,.2ZM56.7,35.5l-2.4-.5-.3,1.6-.8-.2.5-2.5,3.2.6-.2.9ZM55.4,33.3h0c-.9,0-1.7-.8-1.7-1.8,0-1,.8-1.7,1.8-1.7h0c.9,0,1.7.8,1.7,1.8,0,1-.8,1.7-1.8,1.7ZM56.9,27c.1,1-.5,1.9-1.4,2h0c-.9.1-1.8-.5-2-1.5-.1-1,.5-1.9,1.4-2h0c.9-.1,1.8.5,2,1.5ZM55.7,22l-1.2.4.4,1.1,1.2-.4.3.9-3.1,1-.3-.9,1.2-.4-.4-1.1-1.2.4-.3-.9,3.1-1,.3.9ZM54.3,18.7c.3.6.3,1.1,0,1.6l-.8-.4c.1-.3.2-.5,0-.8-.2-.4-.7-.5-1.1-.3h0c-.4.2-.6.7-.4,1.1.2.3.4.4.7.5v.8c-.6,0-1.1-.3-1.5-1-.4-.8-.1-1.8.7-2.3h0c.9-.4,1.9-.1,2.3.7ZM52,15c.3.5.5.9.5,1.4h-.8c0-.4-.1-.7-.3-.9-.1-.2-.3-.2-.4-.1h0c-.1,0-.1.2,0,.7.3.7.4,1.2,0,1.6h0c-.5.4-1.2.2-1.7-.4-.3-.5-.5-1-.5-1.6h.8c0,.5,0,.8.3,1.1.1.2.3.3.4.2h0c.1,0,.1-.2,0-.6-.3-.7-.5-1.2,0-1.6h0c.5-.4,1.1-.2,1.6.4Z"/>
  <path class="st0" d="M5.9,31.3l.9.4v-.7s-.9.4-.9.4Z"/>
  <path class="st0" d="M29.6,55.8h1s-.5-1.1-.5-1.1l-.5,1.1Z"/>
  <path class="st0" d="M50.2,46.9c-.2-.2-.5-.2-.8.1-.2.3-.2.6,0,.8h0c.2.2.6.2.8-.1.2-.3.2-.6,0-.8h0Z"/>
  <path class="st0" d="M44.6,50.5h0c-.1-.2-.4-.2-.7,0-.3.2-.3.4-.2.6h0c.1.2.4.2.7,0,.2-.2.3-.4.2-.6Z"/>
  <path class="st0" d="M47.1,48.5h0c-.2-.2-.4-.2-.7,0-.2.2-.3.5-.1.6h0c.2.2.5.2.7,0,.2-.2.3-.5.1-.7Z"/>
  <path class="st0" d="M48,49.4c-.2-.2-.5-.2-.7,0-.3.2-.3.5-.2.7h0c.2.2.5.2.7,0,.3-.3.3-.6.2-.7h0Z"/>
  <path class="st0" d="M55.1,26.4h0c-.5,0-.8.5-.8,1,0,.5.5.8,1,.7h0c.5,0,.8-.5.8-1,0-.5-.5-.8-1-.7Z"/>
  <path class="st0" d="M45.4,51.5c-.1-.2-.5-.2-.8,0-.3.2-.4.5-.3.7h0c.1.2.4.2.8,0,.3-.2.4-.5.3-.7h0Z"/>
  <path class="st0" d="M55.5,30.6h0c-.5,0-.9.3-.9.8,0,.5.4.9.9.9h0c.5,0,.9-.3.9-.8,0-.5-.4-.8-.9-.9Z"/>
  <path class="st2" d="M8.6,34.8c-.1-.8-.6-1.2-1.3-1.1h0c-.6.1-.8.6-.8,1.4,0,.5,0,.6-.2.6h0c-.1,0-.2,0-.3-.3,0-.3,0-.6.2-1l-.7-.3c-.2.4-.3.9-.2,1.4.1.8.7,1.2,1.3,1.1h0c.7-.1.8-.7.8-1.4,0-.5,0-.6.2-.6h0c.1,0,.2,0,.3.3,0,.4,0,.8-.2,1.1l.7.4c.3-.5.4-1,.3-1.6Z"/>
  <path class="st2" d="M8.1,32.1l-.6-.2v-1.3s.6-.3.6-.3v-1s-3.3,1.5-3.3,1.5v.9s3.4,1.3,3.4,1.3v-1ZM5.9,31.3l.9-.4v.7s-.9-.4-.9-.4Z"/>
  <path class="st2" d="M5,27.5v.9c0,0,3.2.4,3.2.4v-.9c0,0-3.2-.4-3.2-.4Z"/>
  <path class="st2" d="M8.6,25.9l-1.8-.4,2.1-.9.2-.8-3.2-.8-.2.9,1.7.4-2,.9-.2.8,3.2.8.2-.9Z"/>
  <path class="st2" d="M8.2,19.5l-.7-.3-1.1,2.7.7.3.4-.9,2.3,1,.4-.8-2.3-1,.4-.9Z"/>
  <path class="st2" d="M9.4,15.9l-.5.8,2.7,1.8.5-.8-2.7-1.8Z"/>
  <path class="st2" d="M11.4,15.9c.8.7,1.8.5,2.5-.2.4-.4.5-1,.6-1.4l-1.1-1-1,1.1.5.4.4-.5.3.3c0,.2,0,.3-.2.5-.3.4-.9.4-1.3,0h0c-.4-.3-.4-.9-.1-1.2.2-.2.5-.3.8-.4v-.8c-.6,0-1,.3-1.4.7-.7.8-.6,1.8.1,2.5h0Z"/>
  <path class="st2" d="M16.1,13.3l-1.1-1.4,2.2.5.6-.5-2.1-2.6-.7.6,1.1,1.4-2.1-.5-.7.5,2.1,2.6.7-.6Z"/>
  <path class="st2" d="M19.2,11.1v-.6c0,0,1-.6,1-.6l.5.4.9-.5-2.8-2.2-.8.4.4,3.6.8-.5ZM19.7,9.3l-.6.4v-1c-.1,0,.6.6.6.6Z"/>
  <path class="st2" d="M21.7,7.1l.9,2.3.9-.3-.9-2.3.9-.3-.3-.8-2.7,1,.3.8.9-.3Z"/>
  <path class="st2" d="M25.1,5.2l-.9.2.8,3.2.9-.2-.8-3.2Z"/>
  <path class="st2" d="M28.3,8c.9-.1,1.5-.6,1.4-1.7l-.2-1.8h-.9c0,0,.2,1.9.2,1.9,0,.5-.2.7-.5.7-.4,0-.6-.2-.7-.6l-.2-1.8h-.9c0,0,.2,1.9.2,1.9.1,1,.7,1.4,1.7,1.3Z"/>
  <path class="st2" d="M32,7.1c-.4,0-.7-.2-1.1-.4l-.5.6c.4.4.9.6,1.5.6.8,0,1.3-.3,1.4-1h0c0-.6-.4-.9-1.2-1.1-.5-.1-.6-.2-.6-.3h0c0-.1.1-.2.3-.2.3,0,.6.1.9.4l.5-.6c-.3-.3-.8-.5-1.3-.5-.8,0-1.3.4-1.3,1h0c0,.7.5.9,1.2,1.1.4.1.5.2.5.3h0c0,.2-.1.2-.4.2Z"/>
  <path class="st2" d="M36.9,7.3l1.1.3-.4,1.2.9.3.9-3.2-.9-.3-.3,1.2-1.1-.3.3-1.2-.9-.3-.9,3.2.9.3.4-1.2Z"/>
  <path class="st2" d="M40.9,6.5l-1.3,3,.8.4,1.3-3-.8-.4Z"/>
  <path class="st2" d="M42.6,11.1c.5.3,1,.4,1.5.3l.8-1.3-1.3-.8-.3.6.6.3-.2.3c-.2,0-.3,0-.5-.2-.4-.3-.6-.8-.3-1.2h0c.3-.4.8-.6,1.2-.4.3.2.4.4.5.7l.8-.3c-.1-.4-.4-.8-.9-1.1-.9-.5-1.9-.3-2.4.6h0c-.5.9-.2,1.9.7,2.4Z"/>
  <path class="st2" d="M45.3,12.9l.8-1,.9.8-.8,1,.7.6,2.1-2.5-.7-.6-.8.9-.9-.8.8-.9-.7-.6-2.1,2.5.7.6Z"/>
  <path class="st2" d="M50.4,14.6h0c-.5.4-.4,1,0,1.6.2.4.2.6,0,.6h0c-.1,0-.3,0-.4-.2-.2-.3-.3-.7-.3-1.1h-.8c0,.5.1,1,.5,1.5.5.6,1.1.8,1.7.4h0c.5-.4.4-.9,0-1.6-.2-.4-.2-.6,0-.6h0c0,0,.2,0,.4.1.2.2.3.6.3.9h.8c0-.5-.1-.9-.5-1.4-.5-.6-1.1-.8-1.6-.4Z"/>
  <path class="st2" d="M52,18c-.9.5-1.2,1.5-.7,2.3.3.6.8.9,1.3,1v-.8c-.2,0-.4-.2-.6-.5-.2-.4,0-.9.4-1.1h0c.4-.2.9-.1,1.1.3.1.3.1.5,0,.8l.8.4c.2-.4.3-1,0-1.6-.5-.9-1.5-1.2-2.3-.8h0Z"/>
  <path class="st2" d="M52.5,23l1.2-.4.4,1.1-1.2.4.3.9,3.1-1-.3-.9-1.2.4-.4-1.1,1.2-.4-.3-.9-3.1,1,.3.9Z"/>
  <path class="st2" d="M55,25.5h0c-.9.1-1.6,1-1.4,2,.1,1,1,1.7,2,1.5h0c.9-.1,1.6-1,1.4-2-.1-1-1-1.7-2-1.5ZM56.1,27.1c0,.5-.3.9-.8,1h0c-.5,0-.9-.2-1-.7,0-.5.3-.9.8-1h0c.5,0,.9.2,1,.7Z"/>
  <path class="st2" d="M55.5,29.7h0c-.9,0-1.7.7-1.8,1.7,0,1,.7,1.8,1.7,1.8h0c.9,0,1.7-.7,1.8-1.7,0-1-.7-1.8-1.7-1.8ZM55.5,32.3h0c-.5,0-.9-.4-.9-.9,0-.5.4-.8.9-.8h0c.5,0,.9.4.9.9,0,.5-.4.8-.9.8Z"/>
  <path class="st2" d="M53.2,36.4l.8.2.3-1.6,2.4.5.2-.9-3.2-.6-.5,2.5Z"/>
  <path class="st2" d="M9.7,41.2l-.9-.3s-.1,0-.2,0l-.3.9s0,.1,0,.2l.9.3s.1,0,.2,0l.3-.9s0-.1,0-.2Z"/>
  <path class="st2" d="M11.8,46.3c.4-.4,1-.4,1.4,0,.2.3.3.5.3.9h.5c0-.4,0-.7-.4-1.2-.6-.7-1.5-.7-2.1-.2h0c-.6.5-.7,1.5-.2,2.1.4.4.7.5,1.2.6v-.5c-.3,0-.6-.1-.8-.4-.4-.4-.3-1,.2-1.4h0Z"/>
  <path class="st2" d="M15,47.7l-1.9,2.2,1.5,1.3.3-.3-1.2-1,1.6-1.8-.4-.3Z"/>
  <path class="st2" d="M15.6,52l1.8,1.2.3-.4-1.4-.9.4-.7,1.2.8.3-.4-1.2-.8.4-.6,1.4.9.3-.4-1.8-1.2-1.6,2.4Z"/>
  <path class="st2" d="M21.7,52.1l-1.7,1.6.2-2.4-.5-.2-.2,3.2.4.2,2.3-2.1-.5-.2Z"/>
  <path class="st2" d="M22.1,55.5l2.1.6v-.4c.1,0-1.5-.5-1.5-.5l.2-.7,1.4.4v-.4c.1,0-1.3-.4-1.3-.4l.2-.7,1.6.5v-.4c.1,0-1.9-.6-1.9-.6l-.8,2.8Z"/>
  <path class="st2" d="M26.6,53.7h-.5c0,0-.5,2.8-.5,2.8l2,.3v-.5c0,0-1.4-.3-1.4-.3l.4-2.4Z"/>
  <path class="st2" d="M29.9,54l-1.4,2.9h.5s.3-.7.3-.7h1.4s.3.8.3.8h.5s-1.2-3-1.2-3h-.5ZM29.6,55.8l.5-1.1.5,1.2h-1Z"/>
  <path class="st2" d="M34.5,53.8l.3,2-1.8-1.8h-.5c0,0,.4,2.9.4,2.9h.5c0,0-.3-2.1-.3-2.1l1.9,1.8h.4c0,0-.4-2.9-.4-2.9h-.5Z"/>
  <path class="st2" d="M39.1,54.1c-.2-.8-1-1.2-1.9-.9l-1,.3.8,2.8,1-.3c.9-.3,1.3-1.1,1.1-1.8h0ZM38,55.5l-.5.2-.6-1.9.5-.2c.6-.2,1.1.1,1.3.7h0c.2.6,0,1.1-.7,1.2Z"/>
  <path class="st2" d="M41.5,51.5l-.6.6.3.3.4-.4,1.1,2.1.4-.2-1.4-2.6-.3.2Z"/>
  <path class="st2" d="M45.8,51.3c-.2-.3-.5-.3-.8-.3.1-.2.2-.5,0-.8h0c-.3-.4-.8-.4-1.3,0-.5.3-.6.9-.4,1.2h0c.2.3.4.3.7.3-.2.3-.2.6,0,.9h0c.3.4.9.4,1.4,0,.5-.4.7-.9.4-1.3h0ZM43.8,51.1h0c-.1-.2,0-.5.2-.6.3-.2.5-.1.7,0h0c.1.2,0,.5-.2.7-.2.2-.5.1-.7,0ZM45.2,52.2c-.3.2-.6.2-.8,0h0c-.2-.2,0-.5.3-.7.3-.2.6-.2.8,0h0c.1.2,0,.5-.3.7Z"/>
  <path class="st2" d="M48.4,49.1c-.2-.3-.5-.3-.9-.2,0-.3,0-.5-.1-.8h0c-.3-.3-.8-.3-1.3,0-.4.4-.5.9-.2,1.3h0c.2.2.5.3.7.2-.2.3-.2.6,0,.9h0c.3.4.9.3,1.4-.1.5-.4.6-1,.3-1.4h0ZM46.3,49.2h0c-.1-.2-.1-.4.1-.7.2-.2.5-.2.7,0h0c.2.2.1.5-.1.7-.2.2-.5.2-.7,0ZM47.9,50.1c-.3.3-.6.3-.7,0h0c-.2-.2,0-.5.2-.7.3-.2.6-.3.7,0h0c.2.2.1.5-.2.7Z"/>
  <path class="st2" d="M50.6,46.5c-.4-.4-1-.3-1.4.2-.2.3-.2.5-.2.7-.4-.4-.5-.8-.2-1.1.2-.2.4-.3.6-.3v-.5c-.4,0-.7.2-.9.5-.5.6-.3,1.4.4,2h0c.4.4.8.5,1.1.5.3,0,.5-.1.8-.4.4-.5.4-1.1,0-1.5h0ZM50.3,47.7c-.2.3-.6.3-.8.1h0c-.2-.2-.2-.5,0-.8.2-.3.6-.3.8-.1h0c.2.2.3.5,0,.8Z"/>
  <path class="st2" d="M53.1,41.2s0-.1-.2,0l-.9.3s-.1,0,0,.2l.3.9s0,.1.2,0l.9-.3s.1,0,0-.2l-.3-.9Z"/>
  <path class="st2" d="M25.9,31.1h-3.1l-9.3,9.3c.4.7.8,1.3,1.2,1.9l11.2-11.2Z"/>
  <path class="st2" d="M19.9,31.1h-3.1l-5,5c.2.8.5,1.5.8,2.3l7.3-7.3Z"/>
  <path class="st2" d="M17.6,45.5l12.9-12.9v-1.5h-1.6l-12.8,12.8c.5.5,1,1.1,1.5,1.5Z"/>
  <path class="st2" d="M30.5,47.6l-2.8,2.8c.9.2,1.8.2,2.8.3v-3Z"/>
  <path class="st2" d="M30.5,38.6v-3.1l-11.3,11.3c.6.4,1.2.8,1.9,1.2l9.4-9.4Z"/>
  <path class="st2" d="M11.2,33.7l2.6-2.6h-2.8c0,.9,0,1.7.2,2.6Z"/>
  <path class="st2" d="M30.5,41.6l-7.4,7.4c.7.3,1.5.6,2.2.8l5.2-5.2v-3.1Z"/>
  <path class="st1" d="M75.7,64c-1.2,0-2,.5-2.5.9-.6.5-1.1,1.4-1.1,2.4,0,1.1.8,2,2.3,2s1.1-.2,1.4-.2c.1-.2.4-.7.5-1.2,0,0-.2-.1-.3,0-.5.7-1,1.1-1.6,1.1s-1.2-.4-1.2-1.6,1-3,2.3-3,1,.3.9,1.1c0,0,.2,0,.3,0,.1-.4.2-.8.4-1.2-.2,0-.8-.3-1.5-.3Z"/>
  <path class="st1" d="M79.4,64.7c.1-.4.2-.7.4-1,0,0,0,0,0,0-.4,0-1.2.2-1.4.3,0,0,0,.1,0,.2h.2c.1.2.1.3,0,.6l-1.3,3.8c0,.2-.1.3-.1.5s.1.3.5.3c.9,0,1.3-.6,1.5-1,0,0,0-.2-.1-.2-.2.2-.6.7-.8.7s0-.1,0-.4l1.3-3.6Z"/>
  <path class="st1" d="M81.9,66c-.4,0-.8.1-1.2.4-.6.5-1,1.3-1,1.9s.3.9.8.9,1.3-.3,1.7-.9c0,0,0-.2-.2-.2-.4.4-.7.5-1,.5s-.3-.2-.3-.4,0-.3,0-.4c.6-.2,1.9-.5,1.9-1.3s-.3-.6-.7-.6ZM81.5,67.1c-.2.2-.5.4-.7.4,0-.3.3-.8.5-1.1.1-.1.2-.2.3-.2s.1,0,.1.2c0,.2-.1.5-.3.6Z"/>
  <path class="st1" d="M86.1,66c-.3,0-.5.2-.5.5,0,.1,0,.4,0,.6s-.2.8-.4,1.1c-.3.4-.6.6-.7.6s-.2-.1-.2-.2,0-.3.1-.5l.4-1.1c0-.2.1-.4.1-.5,0-.2-.1-.4-.4-.4-.7,0-1.3.5-1.5.9,0,0,0,.1.2.1.2-.2.5-.4.6-.4s0,.1,0,.3l-.4,1.2c0,.3-.1.5-.1.6s.2.5.5.5.6,0,1.2-.5c.7-.6,1.3-1.6,1.3-2.2s0-.5-.4-.6Z"/>
  <path class="st1" d="M89.2,66c-.4,0-.8.1-1.2.4-.6.5-1,1.3-1,1.9s.3.9.8.9,1.3-.3,1.7-.9c0,0,0-.2-.2-.2-.4.4-.7.5-1,.5s-.3-.2-.3-.4,0-.3,0-.4c.6-.2,1.9-.5,1.9-1.3s-.3-.6-.7-.6ZM88.8,67.1c-.2.2-.5.4-.7.4,0-.3.3-.8.5-1.1.1-.1.2-.2.3-.2s.1,0,.1.2c0,.2-.1.5-.3.6Z"/>
  <path class="st1" d="M92.6,64.7c.1-.4.2-.7.4-1,0,0,0,0,0,0-.4,0-1.2.2-1.4.3,0,0,0,.1,0,.2h.2c.1.2.1.3,0,.6l-1.3,3.8c0,.2-.1.3-.1.5s.1.3.5.3c.9,0,1.3-.6,1.5-1,0,0,0-.2-.1-.2-.2.2-.6.7-.8.7s0-.1,0-.4l1.3-3.6Z"/>
  <path class="st1" d="M96.6,66.1c0,0-.2-.2-.3-.2,0,0-.2,0-.3,0s-.2,0-.2,0l-.2.4c-.1-.1-.3-.2-.3-.2-.4,0-.9.2-1.4.7-.7.6-1.1,1.6-1.1,2s.2.5.5.5c.6,0,1.3-.6,1.7-1.2h0l-.2.6c0,.1,0,.2,0,.3,0,.1,0,.3.3.3.5,0,1.2-.4,1.5-.9,0-.1,0-.2-.1-.2-.2.2-.6.5-.7.5s0,0,0-.2c.3-.8.6-1.7.9-2.4ZM94.8,67.9c-.2.3-.6.8-.8.8s0,0-.1-.1h0c0-.5.4-1.3.8-1.7.3-.3.4-.4.5-.4s.2,0,.3.3c0,.3-.4.8-.7,1.2Z"/>
  <path class="st1" d="M100.9,68.1c-.2.2-.6.5-.7.5s0,0,0-.2c.2-.5.4-1,.6-1.4,0-.2.2-.5.2-.7s-.1-.4-.5-.4c-.7,0-1.3.8-1.8,1.4h0l.4-.9c0-.2,0-.5-.3-.5-.6,0-1.3.5-1.5.9,0,0,0,.1.1.1.2-.2.5-.4.6-.4s0,.1,0,.3c-.1.3-.7,2-.7,2.1,0,.2.2.3.4.3s.3,0,.4-.1c.3-.7.8-1.6,1.2-2.1.3-.3.5-.5.6-.5s0,0,0,.1,0,.2,0,.4c-.2.5-.4,1.1-.6,1.6,0,.1-.1.3-.1.4s.2.3.3.3c.8,0,1.4-.6,1.6-1,0,0,0-.2-.2-.1Z"/>
  <path class="st1" d="M106.1,63.7c-.4,0-1.1.2-1.4.3,0,0,0,.1,0,.2h.2c.1.2.1.3,0,.6l-.5,1.5c0-.1-.2-.2-.4-.2-.4,0-1,.2-1.5.6-.6.5-1,1.3-1,1.9,0,.4.2.7.5.7.8,0,1.4-.8,1.8-1.4h0l-.2.5c0,.2-.2.4-.2.5s0,.3.3.3c.8,0,1.4-.6,1.5-.9,0-.1,0-.2-.1-.2-.2.3-.6.5-.7.5s0,0,0,0c0,0,0-.2.1-.5l1.1-3.3c.1-.4.2-.7.4-1,0,0,0,0,0,0ZM104.3,66.8c-.2.5-.4.8-.6,1.1-.4.5-.9.9-1,.9s-.1,0-.1-.2c0-.2.3-.9.6-1.4.3-.5.6-.7.7-.8.2-.1.2-.1.3-.1.1,0,.2.2,0,.5Z"/>
  <path class="st1" d="M109.3,66.1l-.9.9.9.9.9-.9-.9-.9Z"/>
  <path class="st1" d="M116.1,64.3c.1,0,.1-.2,0-.3-.4,0-.7,0-1,0s-.7,0-1.2,0c-.1,0-.1.2,0,.3h.2c.4.1.4.2.2.9l-.9,3c-.3.8-.4,1.4-.5,1.5-.1.3-.3.6-.4.6s-.2-.1-.3-.2c-.1-.1-.2-.2-.4-.2s-.2,0-.3.2c0,0-.2.2-.2.3,0,.3.3.3.6.3.8,0,1.4-.4,1.8-1,.2-.4.4-.8.6-1.3l1-3.1c.2-.7.3-.8.6-.8h.2Z"/>
  <path class="st1" d="M118,66c-.4,0-.8.1-1.2.4-.6.5-1,1.3-1,1.9s.3.9.8.9,1.3-.3,1.7-.9c0,0,0-.2-.2-.2-.4.4-.7.5-1,.5s-.3-.2-.3-.4,0-.3,0-.4c.6-.2,1.9-.5,1.9-1.3s-.3-.6-.7-.6ZM117.6,67.1c-.2.2-.5.4-.7.4,0-.3.3-.8.5-1.1.1-.1.2-.2.3-.2s.1,0,.1.2c0,.2-.1.5-.3.6Z"/>
  <path class="st1" d="M120.8,66c-.3,0-.6.1-.8.3-.2.2-.4.5-.4.8s.1.5.4.8l.3.3c.2.2.2.3.2.4s-.1.2-.3.2-.3,0-.6-.4c0,0-.2-.2-.2-.2-.2,0-.4.2-.4.4,0,.4.4.6.8.6s.7-.1,1-.3c.3-.2.5-.5.5-.8s-.1-.5-.4-.8l-.3-.3c-.2-.2-.2-.3-.2-.3s0-.2.2-.2c.2,0,.3,0,.6.4,0,0,.1.1.2.1.1,0,.4,0,.4-.4s-.3-.6-.7-.6Z"/>
  <path class="st1" d="M126,66.1c-.1,0-.3-.2-.5-.2s-.2,0-.3,0c-.3.7-.9,1.8-1.5,2.4-.2.1-.2.2-.3.2,0,0-.1,0,0-.2l.8-1.9c0,0,0-.2,0-.2,0-.1-.2-.3-.3-.3-.6,0-1.3.5-1.6.9,0,.1,0,.2.1.2.2-.2.5-.5.7-.5s0,0,0,.2l-.6,1.6c0,.2-.1.3-.1.5,0,.2.2.4.4.4.6,0,1.4-.9,1.9-1.5h0l-.4,1.1c0,.2,0,.4.3.4.6,0,1.4-.6,1.6-1,0-.1,0-.2-.1-.2-.2.2-.6.5-.7.5s0-.1,0-.2c.3-.7.6-1.5.9-2.3Z"/>
  <path class="st1" d="M128.6,64c-.4,0-.6.3-.6.7s.2.5.5.5.6-.3.6-.6-.2-.5-.4-.5Z"/>
  <path class="st1" d="M128.5,66.6c0-.1.1-.3.1-.3,0-.2-.2-.3-.4-.3-.4,0-1.1.4-1.5.9,0,0,0,.2.1.2.1-.1.5-.4.7-.4s0,0,0,.1l-.8,1.9c0,.2,0,.2,0,.3s.2.3.4.3c.6,0,1.3-.5,1.6-.9,0,0,0-.2-.1-.2-.2.2-.6.5-.7.5s0,0,0-.1l.8-1.9Z"/>
  <path class="st1" d="M131.2,66.1l.2-.7c0,0-.2-.1-.3-.1s-.2,0-.3,0l-.5.7h-.7c0,.2-.1.4,0,.4h.6l-.7,2c0,.2,0,.3,0,.4,0,.2.1.3.4.3.6,0,1.4-.6,1.7-1,0,0,0-.2-.2-.2-.3.3-.7.6-.8.6s0,0,0-.2l.7-2h.8c0,0,.2-.3,0-.4h-.7Z"/>
  <path class="st1" d="M135.4,66.1l-.9.9.9.9.9-.9-.9-.9Z"/>
  <path class="st1" d="M141.9,64.2s-.4.2-.7.2c-.3,0-.7.2-1.1.2,0,0,0,.2,0,.3h.3c.2,0,.2.1.2.2,0,0,0,.2-.1.5l-.8,2.4c-.2.6-.2.6-.6.7h-.3c0,0-.1.2,0,.3.4,0,.7,0,1.1,0s.9,0,1.3,0c0,0,.1-.2,0-.3h-.3c-.4,0-.4-.2-.3-.7l.9-2.9c0-.3.2-.7.3-.9,0,0,0-.1-.1-.1Z"/>
  <path class="st1" d="M145.6,64.2c-.9,0-1.6.6-1.6,1.5s.2.7.5.9c-.7.3-1.3.7-1.3,1.5s.7,1.2,1.5,1.2,1.9-.6,1.9-1.5-.3-.9-.7-1.1c.5-.2,1.1-.6,1.1-1.2s-.7-1.2-1.4-1.2ZM144.9,68.9c-.5,0-.8-.4-.8-.9s.3-.9.7-1.2c.4.2.9.6.9,1.2s-.3.8-.8.8ZM145.7,66.3c-.4-.2-.7-.5-.7-1s.3-.7.7-.7.6.3.6.7-.3.9-.5,1Z"/>
  <path class="st1" d="M150,64.2c-.9,0-1.6.6-1.6,1.5s.2.7.5.9c-.7.3-1.3.7-1.3,1.5s.7,1.2,1.5,1.2,1.9-.6,1.9-1.5-.3-.9-.7-1.1c.5-.2,1.1-.6,1.1-1.2s-.7-1.2-1.4-1.2ZM149.2,68.9c-.5,0-.8-.4-.8-.9s.3-.9.7-1.2c.4.2.9.6.9,1.2s-.3.8-.8.8ZM150,66.3c-.4-.2-.7-.5-.7-1s.3-.7.7-.7.6.3.6.7-.3.9-.5,1Z"/>
  <path class="st1" d="M156.5,63.8c-.9,0-2,.4-2.8.9-1.1.8-1.7,2-1.7,2.9s.5,1.6,1.6,1.6,2-.8,2-2-.4-1.2-1.1-1.2-.6.1-.8.3c0,0,0,.2,0,.2.1,0,.2,0,.3,0,.4,0,.4.5.4.8,0,.5-.3,1.5-.9,1.5s-.5-.5-.5-.9c0-1,.5-2.2,1.3-2.8.6-.5,1.2-.9,2.1-1,0,0,0-.2,0-.3Z"/>
</svg>